<svg class="railroad-diagram" width="1447" height="212" viewBox="0 0 1447 212">
<style type="text/css">
    <![CDATA[
    svg.railroad-diagram {
        background-color: white;
    }
    svg.railroad-diagram path {
        stroke-width: 2;
        stroke: black;
        fill: rgba(0,0,0,0);
    }
    svg.railroad-diagram text {
        font: bold 14px monospace;
        text-anchor: middle;
    }
    svg.railroad-diagram text.diagram-text {
        font-size: 12px;
    }
    svg.railroad-diagram text.diagram-arrow {
        font-size: 16px;
    }
    svg.railroad-diagram text.label {
        text-anchor: start;
    }
    svg.railroad-diagram text.comment {
        font: italic 12px monospace;
    }
    svg.railroad-diagram rect {
        stroke-width: 2;
        stroke: black;
        fill: yellow;
    }
    svg.railroad-diagram path.diagram-text {
        stroke-width: 2;
        stroke: black;
        fill: white;
        cursor: help;
    }
    svg.railroad-diagram g.diagram-text:hover path.diagram-text {
        fill: #eee;
    }

    ]]>
</style>
    <svg class="railroad-diagram" width="1447" height="182" viewBox="0 0 1447 182">
        <g transform="translate(.5 .5)">
            <path d="M 20 51 v 20 m 10 -20 v 20 m -10 -10 h 20.5"></path>
            <path d="M40 61h10"></path>
            <g>
                <path d="M50 61h0"></path>
                <path d="M260 61h0"></path>
                <path d="M80 61v-20a10 10 0 0 1 10 -10"></path>
                <g>
                    <path d="M90 31h23"></path>
                    <path d="M207 31h23"></path>
                    <text x="160" y="36" class="comment">Code Quality</text>
                </g>
                <path d="M230 31a10 10 0 0 1 10 10v10"></path>
                <path d="M80 61h10"></path>
                <g class="non-terminal">
                    <path d="M90 61h36"></path>
                    <path d="M194 61h36"></path>
                    <rect x="126" y="50" width="68" height="22"></rect>
                    <text x="160" y="65">ESLint</text>
                </g>
                <path d="M230 61h10"></path>
                <path d="M80 61v20a10 10 0 0 0 10 10"></path>
                <g class="terminal">
                    <path d="M90 91h0"></path>
                    <path d="M230 91h0"></path>
                    <rect x="90" y="80" width="140" height="22" rx="10" ry="10"></rect>
                    <text x="160" y="95">ESLint auto-fix</text>
                </g>
                <path d="M230 91a10 10 0 0 0 10 -10v-20"></path>
                <path d="M80 61v50a10 10 0 0 0 10 10"></path>
                <g class="terminal">
                    <path d="M90 121h24"></path>
                    <path d="M206 121h24"></path>
                    <rect x="114" y="110" width="92" height="22" rx="10" ry="10"></rect>
                    <text x="160" y="125">JSInspect</text>
                </g>
                <path d="M230 121a10 10 0 0 0 10 -10v-50"></path>
                <path d="M80 61v80a10 10 0 0 0 10 10"></path>
                <g class="terminal">
                    <path d="M90 151h44"></path>
                    <path d="M186 151h44"></path>
                    <rect x="134" y="140" width="52" height="22" rx="10" ry="10"></rect>
                    <text x="160" y="155">a11y</text>
                </g>
                <path d="M230 151a10 10 0 0 0 10 -10v-80"></path>
                <g class="diagram-text">
                    <title>take one or more branches, once each, in any order</title>
                    <path d="M 80 51 h -26 a 4 4 0 0 0 -4 4 v 12 a 4 4 0 0 0 4 4 h 26 z" class="diagram-text"></path>
                    <text x="65" y="65" class="diagram-text">1+</text>
                    <path d="M 240 51 h 16 a 4 4 0 0 1 4 4 v 12 a 4 4 0 0 1 -4 4 h -16 z" class="diagram-text"></path>
                    <path d="M 247 59 a 4 4 0 1 0 6 -1 m 2.75 -1 h -4 v 4 m 0 -3 h 2" style="stroke-width: 1.75"></path>
                </g>
            </g>
            <path d="M260 61h10"></path>
            <g>
                <path d="M270 61h0"></path>
                <path d="M418 61h0"></path>
                <path d="M270 61a10 10 0 0 0 10 -10v-10a10 10 0 0 1 10 -10"></path>
                <g>
                    <path d="M290 31h0"></path>
                    <path d="M398 31h0"></path>
                    <text x="344" y="36" class="comment">Test Framework</text>
                </g>
                <path d="M398 31a10 10 0 0 1 10 10v10a10 10 0 0 0 10 10"></path>
                <path d="M270 61h20"></path>
                <g class="terminal">
                    <path d="M290 61h4"></path>
                    <path d="M394 61h4"></path>
                    <rect x="294" y="50" width="100" height="22" rx="10" ry="10"></rect>
                    <text x="344" y="65">Mocha/Chai</text>
                </g>
                <path d="M398 61h20"></path>
                <path d="M270 61a10 10 0 0 1 10 10v10a10 10 0 0 0 10 10"></path>
                <g class="terminal">
                    <path d="M290 91h28"></path>
                    <path d="M370 91h28"></path>
                    <rect x="318" y="80" width="52" height="22" rx="10" ry="10"></rect>
                    <text x="344" y="95">Jest</text>
                </g>
                <path d="M398 91a10 10 0 0 0 10 -10v-10a10 10 0 0 1 10 -10"></path>
            </g>
            <g>
                <path d="M418 61h0"></path>
                <path d="M660 61h0"></path>
                <path d="M418 61a10 10 0 0 0 10 -10v-10a10 10 0 0 1 10 -10"></path>
                <g>
                    <path d="M438 31h40"></path>
                    <path d="M600 31h40"></path>
                    <text x="539" y="36" class="comment">Style Processing</text>
                </g>
                <path d="M640 31a10 10 0 0 1 10 10v10a10 10 0 0 0 10 10"></path>
                <path d="M418 61h20"></path>
                <g>
                    <path d="M438 61h0"></path>
                    <path d="M640 61h0"></path>
                    <g>
                        <path d="M438 61h0"></path>
                        <path d="M554 61h0"></path>
                        <path d="M438 61h20"></path>
                        <g class="terminal">
                            <path d="M458 61h0"></path>
                            <path d="M534 61h0"></path>
                            <rect x="458" y="50" width="76" height="22" rx="10" ry="10"></rect>
                            <text x="496" y="65">less.js</text>
                        </g>
                        <path d="M534 61h20"></path>
                        <path d="M438 61a10 10 0 0 1 10 10v10a10 10 0 0 0 10 10"></path>
                        <g class="terminal">
                            <path d="M458 91h12"></path>
                            <path d="M522 91h12"></path>
                            <rect x="470" y="80" width="52" height="22" rx="10" ry="10"></rect>
                            <text x="496" y="95">Sass</text>
                        </g>
                        <path d="M534 91a10 10 0 0 0 10 -10v-10a10 10 0 0 1 10 -10"></path>
                        <path d="M438 61a10 10 0 0 1 10 10v40a10 10 0 0 0 10 10"></path>
                        <g class="terminal">
                            <path d="M458 121h12"></path>
                            <path d="M522 121h12"></path>
                            <rect x="470" y="110" width="52" height="22" rx="10" ry="10"></rect>
                            <text x="496" y="125">none</text>
                        </g>
                        <path d="M534 121a10 10 0 0 0 10 -10v-40a10 10 0 0 1 10 -10"></path>
                    </g>
                    <path d="M554 61h10"></path>
                    <g class="non-terminal">
                        <path d="M564 61h0"></path>
                        <path d="M640 61h0"></path>
                        <rect x="564" y="50" width="76" height="22"></rect>
                        <text x="602" y="65">PostCSS</text>
                    </g>
                </g>
                <path d="M640 61h20"></path>
            </g>
            <g>
                <path d="M660 61h0"></path>
                <path d="M871 61h0"></path>
                <path d="M660 61a10 10 0 0 0 10 -10v-10a10 10 0 0 1 10 -10"></path>
                <g>
                    <path d="M680 31h0"></path>
                    <path d="M851 31h0"></path>
                    <text x="765.5" y="36" class="comment">Template Precompilation</text>
                </g>
                <path d="M851 31a10 10 0 0 1 10 10v10a10 10 0 0 0 10 10"></path>
                <path d="M660 61h20"></path>
                <g class="terminal">
                    <path d="M680 61h35.5"></path>
                    <path d="M815.5 61h35.5"></path>
                    <rect x="715.5" y="50" width="100" height="22" rx="10" ry="10"></rect>
                    <text x="765.5" y="65">Handlebars</text>
                </g>
                <path d="M851 61h20"></path>
                <path d="M660 61a10 10 0 0 1 10 10v10a10 10 0 0 0 10 10"></path>
                <g class="terminal">
                    <path d="M680 91h51.5"></path>
                    <path d="M799.5 91h51.5"></path>
                    <rect x="731.5" y="80" width="68" height="22" rx="10" ry="10"></rect>
                    <text x="765.5" y="95">Lodash</text>
                </g>
                <path d="M851 91a10 10 0 0 0 10 -10v-10a10 10 0 0 1 10 -10"></path>
            </g>
            <g>
                <path d="M871 61h0"></path>
                <path d="M1145 61h0"></path>
                <path d="M871 61a10 10 0 0 0 10 -10v-10a10 10 0 0 1 10 -10"></path>
                <g>
                    <path d="M891 31h59.5"></path>
                    <path d="M1065.5 31h59.5"></path>
                    <text x="1008" y="36" class="comment">Script Bundling</text>
                </g>
                <path d="M1125 31a10 10 0 0 1 10 10v10a10 10 0 0 0 10 10"></path>
                <path d="M871 61h20"></path>
                <g>
                    <path d="M891 61h59"></path>
                    <path d="M1066 61h59"></path>
                    <g class="terminal">
                        <path d="M950 61h0"></path>
                        <path d="M994 61h0"></path>
                        <rect x="950" y="50" width="44" height="22" rx="10" ry="10"></rect>
                        <text x="972" y="65">AMD</text>
                    </g>
                    <path d="M994 61h10"></path>
                    <path d="M1004 61h10"></path>
                    <g class="terminal">
                        <path d="M1014 61h0"></path>
                        <path d="M1066 61h0"></path>
                        <rect x="1014" y="50" width="52" height="22" rx="10" ry="10"></rect>
                        <text x="1040" y="65">r.js</text>
                    </g>
                </g>
                <path d="M1125 61h20"></path>
                <path d="M871 61a10 10 0 0 1 10 10v40a10 10 0 0 0 10 10"></path>
                <g>
                    <path d="M891 121h0"></path>
                    <path d="M1125 121h0"></path>
                    <g class="terminal">
                        <path d="M891 121h0"></path>
                        <path d="M975 121h0"></path>
                        <rect x="891" y="110" width="84" height="22" rx="10" ry="10"></rect>
                        <text x="933" y="125">CommonJS</text>
                    </g>
                    <path d="M975 121h10"></path>
                    <g>
                        <path d="M985 121h0"></path>
                        <path d="M1125 121h0"></path>
                        <path d="M985 121a10 10 0 0 0 10 -10v-10a10 10 0 0 1 10 -10"></path>
                        <g class="terminal">
                            <path d="M1005 91h0"></path>
                            <path d="M1105 91h0"></path>
                            <rect x="1005" y="80" width="100" height="22" rx="10" ry="10"></rect>
                            <text x="1055" y="95">Browserify</text>
                        </g>
                        <path d="M1105 91a10 10 0 0 1 10 10v10a10 10 0 0 0 10 10"></path>
                        <path d="M985 121h20"></path>
                        <g class="terminal">
                            <path d="M1005 121h12"></path>
                            <path d="M1093 121h12"></path>
                            <rect x="1017" y="110" width="76" height="22" rx="10" ry="10"></rect>
                            <text x="1055" y="125">Webpack</text>
                        </g>
                        <path d="M1105 121h20"></path>
                    </g>
                </g>
                <path d="M1125 121a10 10 0 0 0 10 -10v-40a10 10 0 0 1 10 -10"></path>
            </g>
            <path d="M1145 61h10"></path>
            <g>
                <path d="M1155 61h0"></path>
                <path d="M1397 61h0"></path>
                <path d="M1185 61v-20a10 10 0 0 1 10 -10"></path>
                <g>
                    <path d="M1195 31h39"></path>
                    <path d="M1328 31h39"></path>
                    <text x="1281" y="36" class="comment">Optimization</text>
                </g>
                <path d="M1367 31a10 10 0 0 1 10 10v10"></path>
                <path d="M1185 61h10"></path>
                <g class="non-terminal">
                    <path d="M1195 61h0"></path>
                    <path d="M1367 61h0"></path>
                    <rect x="1195" y="50" width="172" height="22"></rect>
                    <text x="1281" y="65">babel-preset-minify</text>
                </g>
                <path d="M1367 61h10"></path>
                <path d="M1185 61v20a10 10 0 0 0 10 10"></path>
                <g class="terminal">
                    <path d="M1195 91h44"></path>
                    <path d="M1323 91h44"></path>
                    <rect x="1239" y="80" width="84" height="22" rx="10" ry="10"></rect>
                    <text x="1281" y="95">imagemin</text>
                </g>
                <path d="M1367 91a10 10 0 0 0 10 -10v-20"></path>
                <path d="M1185 61v50a10 10 0 0 0 10 10"></path>
                <g class="terminal">
                    <path d="M1195 121h28"></path>
                    <path d="M1339 121h28"></path>
                    <rect x="1223" y="110" width="116" height="22" rx="10" ry="10"></rect>
                    <text x="1281" y="125">benchmark.js</text>
                </g>
                <path d="M1367 121a10 10 0 0 0 10 -10v-50"></path>
                <g class="diagram-text">
                    <title>take one or more branches, once each, in any order</title>
                    <path d="M 1185 51 h -26 a 4 4 0 0 0 -4 4 v 12 a 4 4 0 0 0 4 4 h 26 z" class="diagram-text"></path>
                    <text x="1170" y="65" class="diagram-text">1+</text>
                    <path d="M 1377 51 h 16 a 4 4 0 0 1 4 4 v 12 a 4 4 0 0 1 -4 4 h -16 z" class="diagram-text"></path>
                    <path d="M 1384 59 a 4 4 0 1 0 6 -1 m 2.75 -1 h -4 v 4 m 0 -3 h 2" style="stroke-width: 1.75"></path>
                </g>
            </g>
            <path d="M1397 61h10"></path>
            <path d="M 1407 61 h 20 m -10 -10 v 20 m 10 -20 v 20"></path>
        </g>
    </svg>
